<?xml version="1.0" encoding="utf-8"?>
<!-- Generator: Adobe Illustrator 16.0.0, SVG Export Plug-In . SVG Version: 6.00 Build 0)  -->
<!DOCTYPE svg PUBLIC "-//W3C//DTD SVG 1.1//EN" "http://www.w3.org/Graphics/SVG/1.1/DTD/svg11.dtd">
<svg version="1.1" id="Layer_1" xmlns="http://www.w3.org/2000/svg" xmlns:xlink="http://www.w3.org/1999/xlink" x="0px" y="0px"
	 width="56.789px" height="60.846px" viewBox="0 0 56.789 60.846" enable-background="new 0 0 56.789 60.846" xml:space="preserve">
<g>
	<rect x="10.387" y="24.312" fill="#B17A64" width="36" height="27"/>
	<g>
		<g>
			<path fill="#1D1D1B" d="M55.773,4.057h-7.099V1.014c0-0.56-0.452-1.014-1.014-1.014h-7.099c-0.561,0-1.012,0.454-1.012,1.014
				v3.043H17.238V1.014c0-0.56-0.455-1.014-1.014-1.014H9.127C8.565,0,8.112,0.454,8.112,1.014v3.043H1.014
				C0.453,4.057,0,4.509,0,5.07v11.155v43.606c0,0.561,0.453,1.014,1.014,1.014h54.76c0.561,0,1.016-0.453,1.016-1.014V16.226V5.07
				C56.789,4.509,56.334,4.057,55.773,4.057z M41.576,2.028h5.07V5.07v3.042h-5.07V5.07V2.028z M10.141,2.028h5.07V5.07v3.042h-5.07
				V5.07V2.028z M2.027,6.085h6.085v3.042c0,0.561,0.453,1.015,1.015,1.015h7.098c0.559,0,1.014-0.454,1.014-1.015V6.085h22.312
				v3.042c0,0.561,0.451,1.015,1.012,1.015h7.099c0.562,0,1.014-0.454,1.014-1.015V6.085h6.087v9.126H2.027V6.085z M2.027,58.816
				V17.239h52.734v41.577H2.027z"/>
			<path fill="#1D1D1B" d="M36.508,23.325h-7.1h-2.029H20.28h-2.028H9.127v9.126v2.027v7.098v2.029v9.129h9.125h2.028h7.099h2.029
				h7.1h2.027h9.126v-9.129v-2.029v-7.098v-2.027v-9.126h-9.126H36.508z M29.408,25.351h7.1v7.101h-7.1V25.351z M36.508,41.576h-7.1
				v-7.098h7.1V41.576z M20.28,34.479h7.099v7.098H20.28V34.479z M20.28,25.351h7.099v7.101H20.28V25.351z M11.152,25.351h7.1v7.101
				h-7.1V25.351z M11.152,34.479h7.1v7.098h-7.1V34.479z M18.252,50.704h-7.1v-7.099h7.1V50.704z M27.379,50.704H20.28v-7.099h7.099
				V50.704z M36.508,50.704h-7.1v-7.099h7.1V50.704z M45.633,50.704h-7.098v-7.099h7.098V50.704z M45.633,41.576h-7.098v-7.098
				h7.098V41.576z M45.633,25.351v7.101h-7.098v-7.101H45.633z"/>
		</g>
	</g>
</g>
</svg>
