<svg id="Layer_1" data-name="Layer 1" xmlns="http://www.w3.org/2000/svg" xmlns:xlink="http://www.w3.org/1999/xlink" viewBox="0 0 670.89 322.46"><defs><linearGradient id="linear-gradient" x1="805.35" y1="520.86" x2="805.35" y2="444.22" gradientUnits="userSpaceOnUse"><stop offset="0" stop-color="#fff"/><stop offset="0.82" stop-color="#f1f1f1"/><stop offset="1" stop-color="#ededed"/></linearGradient><linearGradient id="linear-gradient-2" x1="910.91" y1="520.86" x2="910.91" y2="444.22" xlink:href="#linear-gradient"/><linearGradient id="linear-gradient-3" x1="1002.84" y1="519.78" x2="1002.84" y2="440.55" xlink:href="#linear-gradient"/><linearGradient id="linear-gradient-4" x1="716.15" y1="519.78" x2="716.15" y2="440.55" xlink:href="#linear-gradient"/><linearGradient id="linear-gradient-5" x1="1077.41" y1="519.78" x2="1077.41" y2="444.22" xlink:href="#linear-gradient"/><linearGradient id="linear-gradient-6" x1="1249.53" y1="519.78" x2="1249.53" y2="444.22" xlink:href="#linear-gradient"/><linearGradient id="linear-gradient-7" x1="1324.98" y1="520.54" x2="1324.98" y2="443.47" xlink:href="#linear-gradient"/><linearGradient id="linear-gradient-8" x1="1227.79" y1="487.68" x2="1120.1" y2="487.68" gradientTransform="translate(1272.82 -779.68) rotate(71.9)" gradientUnits="userSpaceOnUse"><stop offset="0" stop-color="#da9679"/><stop offset="0.18" stop-color="#cc8b6f"/><stop offset="0.54" stop-color="#a66c53"/><stop offset="1" stop-color="#6c3d29"/></linearGradient></defs><title>Vector Smart Object3</title><path d="M759.42,519c11.66,0,11.66-6,11.66-18.68v-36.7c0-13.06,0-18.67-11.66-18.67v-.76h32.81c18.14,0,43.29.43,43.29,18,0,15.33-19.11,18.57-31.95,19.1v.22c22.23,0,26.22,7.23,32.7,20.4,7.23,14.79,7.45,17.38,15,17.06v.75c-6.69.43-12.3,1.08-17.16,1.08-10.25,0-17.05-2.91-22.45-17.16-2.7-7-5.94-21.81-16.19-21.81h-2.16v18.46c0,12.85.11,18.68,9.61,18.68v.75h-43.5Zm37.13-38c10.58,0,15.22-5.5,15.22-17.7,0-10.58-3.56-18.13-15.22-18.13h-3.24V481Z" transform="translate(-687.12 -326.44)" style="fill:url(#linear-gradient)"/><path d="M865,519c11.66,0,11.66-6,11.66-18.68v-36.7c0-13.06,0-18.67-11.66-18.67v-.76h32.81c18.13,0,43.28.43,43.28,18,0,15.33-19.1,18.57-32,19.1v.22c22.24,0,26.23,7.23,32.71,20.4,7.23,14.79,7.45,17.38,15,17.06v.75c-6.69.43-12.3,1.08-17.16,1.08-10.25,0-17-2.91-22.45-17.16-2.7-7-5.94-21.81-16.19-21.81h-2.16v18.46c0,12.85.11,18.68,9.61,18.68v.75H865Zm37.13-38c10.58,0,15.22-5.5,15.22-17.7,0-10.58-3.57-18.13-15.22-18.13h-3.24V481Z" transform="translate(-687.12 -326.44)" style="fill:url(#linear-gradient-2)"/><path d="M973.81,464.9l11-24.35,28.82,60c6.15,12.74,10.47,18.46,18.24,18.46v.75h-46.2V519c10.25,0,9.17-8.32,5-17.49L987,493.45m-.54-1.09-12-26.44" transform="translate(-687.12 -326.44)" style="fill:url(#linear-gradient-3)"/><path d="M687.12,464.9l11-24.35,28.82,60C733.09,513.31,737.4,519,745.18,519v.75H699V519c10.25,0,9.17-8.32,5-17.49l-3.67-8.09m-.54-1.09-12-26.44" transform="translate(-687.12 -326.44)" style="fill:url(#linear-gradient-4)"/><path d="M1087.77,500.35c0,12.63,0,18.68,11.66,18.68v.75h-45.55V519c11.66,0,11.66-6,11.66-18.68V489.13l-18.68-31c-5.61-9.18-8.42-13.17-16-13.17v-.76H1077V445c-12,0-6.15,10.79-2.92,16.52l13.06,23.31,5.51-10.47c7.12-13.6,15.22-29.36-.22-29.36v-.76h31.52V445c-12,0-22.13,13.92-30.33,29.68l-5.83,11.12Z" transform="translate(-687.12 -326.44)" style="fill:url(#linear-gradient-5)"/><path d="M1226.81,519.78V519c11.66,0,11.66-6,11.66-18.68V464.62a42.44,42.44,0,0,1-11.34,10.26l-.43-.65c11.23-6.69,18.46-20,22.13-30h11.88v56.13c0,12.63,0,18.68,11.65,18.68v.75Z" transform="translate(-687.12 -326.44)" style="fill:url(#linear-gradient-6)"/><path d="M1313.43,478.55v-.86h3c10,0,14.79-9.07,14.79-19.54,0-8.85-3.45-13.82-10.25-13.82-7,0-9.82,5.29-9.82,9.39a7,7,0,0,0,3.77,6.59c-.32,6.15-4.75,9.07-9.61,9.07-5.17,0-10.14-3.14-10.14-10.15,0-13.17,16-15.76,26.34-15.76,15.22,0,31.52,2.91,31.52,16.3,0,14.89-18.46,17.48-31,18.13v.22c14.89,0,35.94,3.34,35.94,21.05,0,13.92-13.06,21.37-37.35,21.37-9.07,0-28.71-2.49-28.71-17.38,0-8,5.51-11.66,11.12-11.66,5.4,0,10.25,3.35,10.58,10.36a7.93,7.93,0,0,0-4.1,7.34c0,6.16,5,10.47,11.65,10.47,9.29,0,13.39-9.71,13.39-18.78,0-10.15-5.29-22.34-17.6-22.34Z" transform="translate(-687.12 -326.44)" style="fill:url(#linear-gradient-7)"/><rect x="1004.65" y="486.51" width="338.59" height="2.33" transform="translate(-341.4 1125.61) rotate(-71.9)" style="fill:url(#linear-gradient-8)"/></svg>
