<?xml version="1.0" encoding="utf-8"?>
<!-- Generator: Adobe Illustrator 16.0.0, SVG Export Plug-In . SVG Version: 6.00 Build 0)  -->
<!DOCTYPE svg PUBLIC "-//W3C//DTD SVG 1.1//EN" "http://www.w3.org/Graphics/SVG/1.1/DTD/svg11.dtd">
<svg version="1.1" id="Layer_1" xmlns="http://www.w3.org/2000/svg" xmlns:xlink="http://www.w3.org/1999/xlink" x="0px" y="0px"
	 width="67.258px" height="67.216px" viewBox="0 0 67.258 67.216" enable-background="new 0 0 67.258 67.216" xml:space="preserve">
<g>
	<linearGradient id="SVGID_1_" gradientUnits="userSpaceOnUse" x1="10.1729" y1="46.333" x2="44.1729" y2="46.333">
		<stop  offset="0" style="stop-color:#FFAC3A"/>
		<stop  offset="1" style="stop-color:#FF3F6D"/>
	</linearGradient>
	<rect x="10.173" y="33.333" fill="url(#SVGID_1_)" width="34" height="26"/>
	<g>
		<g>
			<path fill="#1D1D1B" d="M52.702,13.56h-6.711v-2.873c0-0.53-0.425-0.959-0.955-0.959h-6.709c-0.527,0-0.957,0.429-0.957,0.959
				v2.873H16.29v-2.873c0-0.53-0.43-0.959-0.961-0.959H8.624c-0.529,0-0.959,0.429-0.959,0.959v2.873H0.96
				C0.429,13.56,0,13.986,0,14.52v10.539V66.26c0,0.53,0.429,0.956,0.96,0.956h51.742c0.527,0,0.955-0.426,0.955-0.956V25.059V14.52
				C53.657,13.986,53.229,13.56,52.702,13.56z M39.287,11.643h4.79v2.877v2.873h-4.79V14.52V11.643z M9.583,11.643h4.791v2.877
				v2.873H9.583V14.52V11.643z M1.917,15.475h5.748v2.875c0,0.531,0.43,0.959,0.959,0.959h6.705c0.531,0,0.961-0.428,0.961-0.959
				v-2.875h21.08v2.875c0,0.531,0.43,0.959,0.957,0.959h6.709c0.53,0,0.955-0.428,0.955-0.959v-2.875h5.752V24.1H1.917V15.475z
				 M1.917,65.302V26.015h49.826v39.287H1.917z"/>
			<path fill="#1D1D1B" d="M34.497,31.766h-6.709H25.87h-6.705h-1.916H8.624v8.623v1.915v6.708v1.916v8.622h8.625h1.916h6.705h1.918
				h6.709h1.914h8.625v-8.622v-1.916v-6.708v-1.915v-8.623h-8.625H34.497z M27.788,33.681h6.709v6.708h-6.709V33.681z
				 M34.497,49.012h-6.709v-6.708h6.709V49.012z M19.165,42.304h6.705v6.708h-6.705V42.304z M19.165,33.681h6.705v6.708h-6.705
				V33.681z M10.54,33.681h6.709v6.708H10.54V33.681z M10.54,42.304h6.709v6.708H10.54V42.304z M17.249,57.634H10.54v-6.706h6.709
				V57.634z M25.87,57.634h-6.705v-6.706h6.705V57.634z M34.497,57.634h-6.709v-6.706h6.709V57.634z M43.118,57.634h-6.707v-6.706
				h6.707V57.634z M43.118,49.012h-6.707v-6.708h6.707V49.012z M43.118,33.681v6.708h-6.707v-6.708H43.118z"/>
		</g>
	</g>
	<g>
		<defs>
			<path id="SVGID_3_" d="M53.173,64.792v-49.82l0.348-1.293l-2.789,0.654h-4.756l0.48-3h-7.123h-1.658l0.135,2.935L17.173,14.39
				v-3.057H7.78l-0.115,3H2.802l0.861-3.681c0,0,6.443-6.747,8.623-6.9c2.178-0.154,23.787-0.024,23.787-0.024
				s11.225-0.913,15.805-0.08c4.58,0.831,9.391,0.441,9.773,1.74c0.383,1.295,0.459,2.671,0.305,3.816
				c-0.152,1.146-0.228,33.586-0.228,33.586s1.45,17.311,1.374,17.592s-3.498,4.006-3.498,4.006L53.173,64.792z"/>
		</defs>
		<clipPath id="SVGID_2_">
			<use xlink:href="#SVGID_3_"  overflow="visible"/>
		</clipPath>
		<g clip-path="url(#SVGID_2_)">
			<g>
				<g>
					<path fill="#1D1D1B" d="M56.362,10.729h-6.709V7.854c0-0.528-0.429-0.956-0.955-0.956h-6.709c-0.529,0-0.959,0.428-0.959,0.956
						v2.876H19.95V7.854c0-0.528-0.428-0.956-0.959-0.956h-6.705c-0.529,0-0.961,0.428-0.961,0.956v2.876H4.62
						c-0.529,0-0.957,0.429-0.957,0.957v10.541v41.2c0,0.529,0.428,0.959,0.957,0.959h51.742c0.529,0,0.957-0.43,0.957-0.959v-41.2
						V11.687C57.319,11.158,56.892,10.729,56.362,10.729z M42.948,8.813h4.79v2.873v2.876h-4.79v-2.876V8.813z M13.243,8.813h4.793
						v2.873v2.876h-4.793v-2.876V8.813z M5.58,12.645h5.745v2.875c0,0.53,0.432,0.957,0.961,0.957h6.705
						c0.531,0,0.959-0.427,0.959-0.957v-2.875h21.08v2.875c0,0.53,0.43,0.957,0.959,0.957h6.709c0.526,0,0.955-0.427,0.955-0.957
						v-2.875h5.75v8.625H5.58V12.645z M5.58,62.472V23.186h49.823v39.286H5.58z"/>
					<path fill="#1D1D1B" d="M38.157,28.936H31.45h-1.918h-6.705h-1.918h-8.623v8.622v1.917v6.706v1.916v8.625h8.623h1.918h6.705
						h1.918h6.707h1.914h8.627v-8.625v-1.916v-6.706v-1.917v-8.622h-8.627H38.157z M31.45,30.85h6.707v6.708H31.45V30.85z
						 M38.157,46.181H31.45v-6.706h6.707V46.181z M22.827,39.475h6.705v6.706h-6.705V39.475z M22.827,30.85h6.705v6.708h-6.705
						V30.85z M14.204,30.85h6.705v6.708h-6.705V30.85z M14.204,39.475h6.705v6.706h-6.705V39.475z M20.909,54.806h-6.705v-6.709
						h6.705V54.806z M29.532,54.806h-6.705v-6.709h6.705V54.806z M38.157,54.806H31.45v-6.709h6.707V54.806z M46.778,54.806h-6.707
						v-6.709h6.707V54.806z M46.778,46.181h-6.707v-6.706h6.707V46.181z M46.778,30.85v6.708h-6.707V30.85H46.778z"/>
				</g>
			</g>
		</g>
	</g>
	<g>
		<defs>
			<path id="SVGID_5_" d="M56.925,61.47l0.051-49.662l0.834-1.289l-2.924,0.814h-4.758l0.48-3h-7.123h-1.662l0.062,2.773
				l-20.713-0.037V8.333h-9.24l-0.115,3H6.952l0.86-3.84c0,0,6.446-6.831,8.626-6.983c2.176-0.153,23.787-0.065,23.787-0.065
				s11.223-0.93,15.805-0.099c4.58,0.83,9.391,0.433,9.773,1.731c0.381,1.299,0.457,2.665,0.305,3.81
				c-0.152,1.146-0.227,33.583-0.227,33.583s1.447,17.313,1.373,17.593c-0.076,0.28-3.361,4.005-3.361,4.005L56.925,61.47z"/>
		</defs>
		<clipPath id="SVGID_4_">
			<use xlink:href="#SVGID_5_"  overflow="visible"/>
		</clipPath>
		<g clip-path="url(#SVGID_4_)">
			<g>
				<g>
					<path fill="#1D1D1B" d="M60.515,7.405h-6.709V4.534c0-0.53-0.43-0.959-0.955-0.959H46.14c-0.529,0-0.955,0.429-0.955,0.959
						v2.871H24.103V4.534c0-0.53-0.428-0.959-0.959-0.959h-6.705c-0.531,0-0.959,0.429-0.959,0.959v2.871H8.772
						c-0.531,0-0.96,0.432-0.96,0.962v10.539v41.2c0,0.531,0.429,0.959,0.96,0.959h51.742c0.527,0,0.957-0.428,0.957-0.959v-41.2
						V8.367C61.472,7.837,61.042,7.405,60.515,7.405z M47.098,5.492h4.792v2.875v2.874h-4.792V8.367V5.492z M17.396,5.492h4.791
						v2.875v2.874h-4.791V8.367V5.492z M9.729,9.324h5.75v2.874c0,0.529,0.428,0.96,0.959,0.96h6.705
						c0.531,0,0.959-0.431,0.959-0.96V9.324h21.082v2.874c0,0.529,0.426,0.96,0.955,0.96h6.711c0.525,0,0.955-0.431,0.955-0.96
						V9.324h5.751v8.623H9.729V9.324z M9.729,59.149V19.864h49.827v39.285H9.729z"/>
					<path fill="#1D1D1B" d="M42.308,25.613h-6.707h-1.915h-6.708h-1.916h-8.623v8.623v1.915v6.71v1.916v8.622h8.623h1.916h6.708
						h1.915h6.707h1.917h8.626v-8.622v-1.916v-6.71v-1.915v-8.623h-8.626H42.308z M35.601,27.53h6.707v6.706h-6.707V27.53z
						 M42.308,42.861h-6.707v-6.71h6.707V42.861z M26.978,36.151h6.708v6.71h-6.708V36.151z M26.978,27.53h6.708v6.706h-6.708V27.53
						z M18.354,27.53h6.708v6.706h-6.708V27.53z M18.354,36.151h6.708v6.71h-6.708V36.151z M25.062,51.483h-6.708v-6.706h6.708
						V51.483z M33.686,51.483h-6.708v-6.706h6.708V51.483z M42.308,51.483h-6.707v-6.706h6.707V51.483z M50.931,51.483h-6.706
						v-6.706h6.706V51.483z M50.931,42.861h-6.706v-6.71h6.706V42.861z M50.931,27.53v6.706h-6.706V27.53H50.931z"/>
				</g>
			</g>
		</g>
	</g>
</g>
</svg>
