<?xml version="1.0" encoding="utf-8"?>
<!-- Generator: Adobe Illustrator 16.0.0, SVG Export Plug-In . SVG Version: 6.00 Build 0)  -->
<!DOCTYPE svg PUBLIC "-//W3C//DTD SVG 1.1//EN" "http://www.w3.org/Graphics/SVG/1.1/DTD/svg11.dtd">
<svg version="1.1" id="Layer_1" xmlns="http://www.w3.org/2000/svg" xmlns:xlink="http://www.w3.org/1999/xlink" x="0px" y="0px"
	 width="56.334px" height="60.359px" viewBox="0 0 56.334 60.359" enable-background="new 0 0 56.334 60.359" xml:space="preserve">
<g>
	<linearGradient id="SVGID_1_" gradientUnits="userSpaceOnUse" x1="28.1738" y1="37.5693" x2="38.1738" y2="37.5693">
		<stop  offset="0" style="stop-color:#FFAC3A"/>
		<stop  offset="1" style="stop-color:#FF3F6D"/>
	</linearGradient>
	<rect x="28.174" y="33.069" fill="url(#SVGID_1_)" width="10" height="9"/>
	<g>
		<g>
			<path fill="#1D1D1B" d="M55.33,4.023h-7.043V1.006C48.287,0.45,47.838,0,47.281,0h-7.042c-0.557,0-1.005,0.45-1.005,1.006v3.018
				H17.104V1.006C17.104,0.45,16.65,0,16.094,0H9.053C8.497,0,8.049,0.45,8.049,1.006v3.018H1.008C0.449,4.023,0,4.474,0,5.03
				v11.065v43.257c0,0.557,0.449,1.007,1.008,1.007H55.33c0.556,0,1.004-0.45,1.004-1.007V16.096V5.03
				C56.334,4.474,55.886,4.023,55.33,4.023z M41.244,2.012h5.03V5.03v3.018h-5.03V5.03V2.012z M10.061,2.012h5.031V5.03v3.018
				h-5.031V5.03V2.012z M2.01,6.035h6.039v3.02c0,0.555,0.448,1.005,1.004,1.005h7.041c0.557,0,1.01-0.45,1.01-1.005v-3.02h22.131
				v3.02c0,0.555,0.448,1.005,1.005,1.005h7.042c0.557,0,1.006-0.45,1.006-1.005v-3.02h6.037v9.055H2.01V6.035z M2.01,58.347V17.102
				h52.314v41.245H2.01z"/>
			<path fill="#1D1D1B" d="M36.217,23.137h-7.043h-2.01h-7.043h-2.014H9.053v9.055v2.011v7.043v2.014v9.052h9.055h2.014h7.043h2.01
				h7.043h2.012h9.053v-9.052v-2.014v-7.043v-2.011v-9.055h-9.053H36.217z M29.174,25.149h7.043v7.042h-7.043V25.149z
				 M36.217,41.245h-7.043v-7.043h7.043V41.245z M20.121,34.202h7.043v7.043h-7.043V34.202z M20.121,25.149h7.043v7.042h-7.043
				V25.149z M11.066,25.149h7.041v7.042h-7.041V25.149z M11.066,34.202h7.041v7.043h-7.041V34.202z M18.107,50.299h-7.041v-7.04
				h7.041V50.299z M27.164,50.299h-7.043v-7.04h7.043V50.299z M36.217,50.299h-7.043v-7.04h7.043V50.299z M45.27,50.299h-7.041
				v-7.04h7.041V50.299z M45.27,41.245h-7.041v-7.043h7.041V41.245z M45.27,25.149v7.042h-7.041v-7.042H45.27z"/>
		</g>
	</g>
</g>
</svg>
