<?xml version="1.0" standalone="no"?>
<!DOCTYPE svg PUBLIC "-//W3C//DTD SVG 20010904//EN"
 "http://www.w3.org/TR/2001/REC-SVG-20010904/DTD/svg10.dtd">
<svg version="1.0" xmlns="http://www.w3.org/2000/svg"
 width="16.000000pt" height="16.000000pt" viewBox="0 0 16.000000 16.000000"
 preserveAspectRatio="xMidYMid meet">
<metadata>
Created by potrace 1.11, written by Peter Selinger 2001-2013
</metadata>
<g transform="translate(0.000000,16.000000) scale(0.002883,-0.002883)"
fill="#000000" stroke="none">
<path d="M2774 5272 c-76 -27 -145 -75 -224 -158 -102 -107 -146 -180 -340
-561 -95 -186 -182 -356 -194 -378 l-21 -40 -500 4 c-540 4 -633 -2 -784 -46
-108 -31 -170 -64 -241 -130 -104 -96 -145 -209 -138 -383 11 -264 145 -404
453 -472 73 -16 144 -21 380 -27 160 -3 289 -10 289 -14 -1 -4 -53 -109 -115
-232 l-114 -225 -280 0 c-396 0 -516 -17 -673 -91 -143 -69 -225 -172 -257
-324 -24 -116 -17 -217 26 -330 17 -45 38 -76 88 -126 104 -104 232 -154 455
-180 l105 -12 -39 -76 c-75 -151 -130 -346 -130 -465 0 -70 25 -169 57 -228
58 -106 220 -221 352 -249 30 -6 91 -9 135 -7 116 6 194 45 302 152 112 111
181 221 355 569 l150 299 235 -3 c129 -2 234 -6 234 -10 0 -3 -42 -89 -93
-190 -51 -101 -107 -223 -124 -270 -79 -218 -83 -401 -12 -542 34 -67 134
-157 221 -200 219 -108 397 -78 574 97 44 45 108 123 142 174 33 51 154 280
269 508 l208 414 540 0 c592 0 666 5 819 58 178 61 289 175 325 333 16 66 13
217 -4 284 -56 214 -244 338 -569 374 -52 6 -201 11 -331 11 -129 0 -235 2
-235 5 0 3 52 109 115 235 l115 230 303 0 c328 0 437 9 567 47 235 68 359 211
377 433 12 158 -35 301 -132 395 -98 96 -246 152 -462 176 -60 6 -109 13 -111
14 -1 1 9 26 22 56 39 90 74 212 86 302 22 161 -15 291 -111 392 -136 144
-350 208 -518 156 -83 -26 -144 -67 -228 -153 -99 -102 -173 -221 -315 -503
l-123 -245 -232 0 c-128 0 -233 4 -233 9 0 4 33 78 74 162 167 344 197 560
105 741 -28 55 -121 147 -184 182 -133 74 -297 97 -411 58z m176 -2212 l166 0
-118 -235 -118 -235 -123 0 c-67 0 -172 3 -234 7 l-112 6 111 221 c61 122 115
227 121 235 9 10 28 12 77 7 36 -3 139 -6 230 -6z"/>
</g>
</svg>
